<svg width="682" height="201" viewBox="0 0 682 201" fill="none" xmlns="http://www.w3.org/2000/svg">
<path d="M50 1H0V201H50V1Z" fill="#D9D9D9"/>
<path d="M129 77H79V201H129V77Z" fill="#D9D9D9"/>
<path d="M129 77H0V127H129V77Z" fill="#D9D9D9"/>
<path d="M208 152H158V201H208V152Z" fill="#D9D9D9"/>
<path d="M287 77H158V126H287V77Z" fill="#D9D9D9"/>
<path d="M682 0H632V49H682V0Z" fill="#D9D9D9"/>
<path d="M287 77H237V201H287V77Z" fill="#D9D9D9"/>
<path d="M366 76H316V200H366V76Z" fill="#D9D9D9"/>
<path d="M524 151H316V201H524V151Z" fill="#D9D9D9"/>
<path d="M445 76H395V200H445V76Z" fill="#D9D9D9"/>
<path d="M524 76H474V200H524V76Z" fill="#D9D9D9"/>
<path d="M682 76H632V200H682V76Z" fill="#D9D9D9"/>
<path d="M603 0H553V200H603V0Z" fill="#D9D9D9"/>
</svg>
