<svg viewBox="97.369 56.777 135.476 49.012" xmlns="http://www.w3.org/2000/svg"><path d="M120.19 93.92c.36 0 .67-.28.7-.64l1.15-21.84c0-.36-.28-.7-.65-.7l-5.62-.31h-.06c-.36 0-.64.31-.67.65l-.39 7.53-5.97-.31h-.05c-.34 0-.65.31-.68.64l-.22 4.9v.06c0 .34.28.64.64.67l5.97.28-.45 8.07c0 .36.28.67.64.7zm-14.14-.14c.36 0 .67-.3.67-.67V71.24c0-.36-.31-.67-.67-.67h-5.68c-.37 0-.68.31-.68.67v21.87c0 .37.31.67.68.67zm36.1-3.5c.05-.11.08-.19.08-.25 0-.28-.31-.45-.59-.59-.89-.47-1.2-1.68-1.2-3.36 0-1.84.39-4.28.78-6.83v-.14c0-.33-.19-.7-.92-.75l-4.84-.42h-.14c-.34 0-.59.08-.76.28-1.09-.48-2.46-.79-3.86-.79-5.55 0-7.93 4.85-7.93 8.21 0 4.5 4.03 8.09 8.71 8.09 1.43 0 2.94-.34 4.4-1.09 1.4 1.31 3.36 1.76 3.64 1.76.36 0 .64-.25.89-.73zm-8.21-2.04c-.64.28-1.26.39-1.79.39-1.82 0-2.91-1.34-2.91-2.91 0-1.43.98-3.14 2.74-3.14.82 0 1.57.4 1.91.96-.06.84-.09 1.59-.09 2.32 0 .87.06 1.65.14 2.38zm25.03 5.35c1.7-.09 3.33-3.03 5.34-14.03.03-.14.06-.31.06-.45 0-.39-.17-.73-.98-.87l-3.39-.67c-.25-.05-.53-.11-.78-.11-.37 0-.65.14-.76.64-1.26 6.08-1.31 6.28-1.4 6.28-.05 0-.11-.12-.14-.2l-.73-3.36c-.16-.42-.42-.56-.81-.56h-.14l-3.22.14c-.67.06-.98.22-1.03.84-.03.25-.2 2.27-.31 3.22-.03.17-.11.25-.17.25-.06 0-.11-.03-.17-.14l-2.85-6.02c-.12-.25-.37-.45-.76-.45-.14 0-.31.03-.5.09l-4.09 1.34c-.56.2-.73.45-.73.7 0 .23.11.45.2.62l5.71 12.54c.25.56.75.73 1.26.73h.14l2.77-.14c.48-.03.92-.36 1.01-.7.22-.73.84-3.47 1.12-4.73.03-.11.05-.28.11-.28.03 0 .08.05.17.28.45 1.23 1.62 4.34 1.79 4.67.22.37.5.48.95.48h.2zm13.18.19c.3 0 .56-.25.56-.56V70.35c0-.34-.26-.59-.56-.59h-5.63c-.31 0-.56.25-.56.59v22.87c0 .31.25.56.56.56zm13.19.56c.81 0 1.17-.39 1.4-.84.42-.95 1.14-2.85 1.14-3.13 0-.48-.47-.73-.86-.73h-.06c-.2.03-.42.03-.62.03-3.5 0-4.95-2.24-4.95-4.23 0-1.74 1.12-2.91 2.46-2.91 1.18 0 1.71.89 1.71 1.15 0 .39-.2.44-1.65.78-.37.08-.59.22-.59.53 0 .11.53 1.93.87 2.86.11.33.25.53.7.53 1.45-.06 3.53-.36 4.84-.81 1.65-.56 2.19-1.63 2.19-2.91 0-.93-.31-7.12-7.26-7.12-6.38 0-9.21 4.2-9.21 8.21 0 4.25 3.19 8.59 9.55 8.59zm29.75-2.57c.2-.17.25-.34.25-.48 0-.31-.3-.59-.47-.73-1.37-1.09-1.74-2.49-1.77-4.31-.08-5.54-4.28-8.68-9.54-8.68-.31 0-.65 0-.98.03v-7.28c0-.31-.26-.59-.56-.59h-5.6c-.34 0-.59.28-.59.59v22.9c0 .34.25.59.59.59h5.6c.3 0 .56-.25.56-.59V83.06h.14c2.01 0 3.58 1.2 3.58 4.59 0 5.69 5.18 6.64 5.29 6.64.25 0 .53-.09.84-.34z" style="fill:#83e1ff;paint-order:stroke;stroke:#f2f2f2;stroke-linecap:round;stroke-width:4px"/><path d="M234.53 84.78c.36 0 .61-.28.67-.64.49-2.81.98-6.68.98-10.28 0-4.85-.46-4.94-1.01-4.94h-6.53c-.36 0-.61.3-.61.64.03 4.21.49 11.86.67 14.58.03.36.31.64.67.64zm-2.65 10c2.37 0 4.33-1.95 4.33-4.36s-1.96-4.36-4.33-4.36c-2.41 0-4.37 1.95-4.37 4.36s1.96 4.36 4.37 4.36z" transform="rotate(6 218.411 8.8)" style="fill:#83e1ff;paint-order:stroke;stroke:#f2f2f2;stroke-linecap:round;stroke-width:4px"/></svg>
